{"accessors":[{"bufferView":2,"componentType":5126,"count":888,"max":[0.131388321518898,0.026709644123911858,0.47307196259498596],"min":[0.10243475437164307,0.025709645822644234,0.4441327452659607],"type":"VEC3"},{"bufferView":2,"byteOffset":10656,"componentType":5126,"count":888,"max":[0.9991889595985413,1,0.9983580112457275],"min":[-0.9998322129249573,-0.07793307304382324,-0.9988388419151306],"type":"VEC3"},{"bufferView":1,"componentType":5126,"count":888,"max":[1,1],"min":[0,0],"type":"VEC2"},{"bufferView":0,"componentType":5125,"count":1686,"max":[887],"min":[0],"type":"SCALAR"},{"bufferView":2,"byteOffset":21312,"componentType":5126,"count":2650,"max":[0.3899405896663666,0.03050014190375805,0.7899628281593323],"min":[-0.3899405896663666,-0.03050014190375805,-0.7899628281593323],"type":"VEC3"},{"bufferView":2,"byteOffset":53112,"componentType":5126,"count":2650,"max":[1,1,1],"min":[-1,-1,-1],"type":"VEC3"},{"bufferView":1,"byteOffset":7104,"componentType":5126,"count":2650,"max":[1,1],"min":[0,0],"type":"VEC2"},{"bufferView":0,"byteOffset":6744,"componentType":5125,"count":4683,"max":[2649],"min":[0],"type":"SCALAR"},{"bufferView":2,"byteOffset":84912,"componentType":5126,"count":32,"max":[0.02902989648282528,4.729564295757882e-9,0.029029859229922295],"min":[-0.02902989648282528,-4.729564295757882e-9,-0.029029859229922295],"type":"VEC3"},{"bufferView":2,"byteOffset":85296,"componentType":5126,"count":32,"max":[2.1433063352273903e-15,1,-1.6292069915380125e-7],"min":[2.1433063352273903e-15,1,-1.6292069915380125e-7],"type":"VEC3"},{"bufferView":1,"byteOffset":28304,"componentType":5126,"count":32,"max":[1,1],"min":[0,0],"type":"VEC2"},{"bufferView":0,"byteOffset":25476,"componentType":5125,"count":90,"max":[31],"min":[0],"type":"SCALAR"},{"bufferView":2,"byteOffset":85680,"componentType":5126,"count":76,"max":[0.08874520659446716,0.03152892738580704,0.1415112167596817],"min":[-0.08874520659446716,-0.03152892738580704,-0.1415112167596817],"type":"VEC3"},{"bufferView":2,"byteOffset":86592,"componentType":5126,"count":76,"max":[0,1,1.1516648612541758e-7],"min":[0,-1,-1.8128382350823813e-7],"type":"VEC3"},{"bufferView":1,"byteOffset":28560,"componentType":5126,"count":76,"max":[4.108633041381836,11.866015434265137],"min":[-4.327569007873535,-10.866015434265137],"type":"VEC2"},{"bufferView":0,"byteOffset":25836,"componentType":5125,"count":216,"max":[75],"min":[0],"type":"SCALAR"},{"bufferView":2,"byteOffset":87504,"componentType":5126,"count":258,"max":[0.10092204064130783,0.033861469477415085,0.12381845712661743],"min":[-0.10092201828956604,-0.0338614396750927,-0.12381845712661743],"type":"VEC3"},{"bufferView":2,"byteOffset":90600,"componentType":5126,"count":258,"max":[0.0008548694895580411,1,0.0007467751856893301],"min":[-0.04466668516397476,-1,-0.0020033472683280706],"type":"VEC3"},{"bufferView":1,"byteOffset":29168,"componentType":5126,"count":258,"max":[0.849062979221344,0.849062979221344],"min":[0.16353531181812286,0.16353531181812286],"type":"VEC2"},{"bufferView":0,"byteOffset":26700,"componentType":5125,"count":744,"max":[257],"min":[0],"type":"SCALAR"},{"bufferView":2,"byteOffset":93696,"componentType":5126,"count":3384,"max":[0.14023949205875397,0.003494759788736701,0.14936137199401855],"min":[-0.14023949205875397,-0.003494794014841318,-0.14936137199401855],"type":"VEC3"},{"bufferView":2,"byteOffset":134304,"componentType":5126,"count":3384,"max":[0.9998149275779724,1,0.9993566274642944],"min":[-0.9999147653579712,-1,-0.9999387860298157],"type":"VEC3"},{"bufferView":1,"byteOffset":31232,"componentType":5126,"count":3384,"max":[1,1],"min":[0,0],"type":"VEC2"},{"bufferView":0,"byteOffset":29676,"componentType":5125,"count":6351,"max":[3383],"min":[0],"type":"SCALAR"},{"bufferView":2,"byteOffset":174912,"componentType":5126,"count":863,"max":[0.3803887665271759,0.003913452848792076,0.7804490923881531],"min":[-0.3803887665271759,-0.00391341419890523,-0.7804490923881531],"type":"VEC3"},{"bufferView":2,"byteOffset":185268,"componentType":5126,"count":863,"max":[1,1,1],"min":[-1,-1,-1],"type":"VEC3"},{"bufferView":1,"byteOffset":58304,"componentType":5126,"count":863,"max":[1,1],"min":[0,0],"type":"VEC2"},{"bufferView":0,"byteOffset":55080,"componentType":5125,"count":1698,"max":[862],"min":[0],"type":"SCALAR"},{"bufferView":2,"byteOffset":195624,"componentType":5126,"count":2052,"max":[0.39570558071136475,0.014519641175866127,0.19061298668384552],"min":[-0.39570558071136475,-0.014519662596285343,-0.19061298668384552],"type":"VEC3"},{"bufferView":2,"byteOffset":220248,"componentType":5126,"count":2052,"max":[1,1,0.9993245005607605],"min":[-1,-1,-0.9992491006851196],"type":"VEC3"},{"bufferView":1,"byteOffset":65208,"componentType":5126,"count":2052,"max":[1,1],"min":[0,0],"type":"VEC2"},{"bufferView":0,"byteOffset":61872,"componentType":5125,"count":3960,"max":[2051],"min":[0],"type":"SCALAR"},{"bufferView":2,"byteOffset":244872,"componentType":5126,"count":242,"max":[0.3899405896663666,0.030500123277306557,0.6598884463310242],"min":[-0.3899405896663666,-0.030500123277306557,-0.6598884463310242],"type":"VEC3"},{"bufferView":2,"byteOffset":247776,"componentType":5126,"count":242,"max":[1,0.5921158790588379,0.045988161116838455],"min":[-1,-0.5921160578727722,-0.013865634799003601],"type":"VEC3"},{"bufferView":1,"byteOffset":81624,"componentType":5126,"count":242,"max":[1,1],"min":[0,0],"type":"VEC2"},{"bufferView":0,"byteOffset":77712,"componentType":5125,"count":384,"max":[241],"min":[0],"type":"SCALAR"},{"bufferView":2,"byteOffset":250680,"componentType":5126,"count":389,"max":[0.10018114745616913,1.7803852614406424e-8,0.10927926003932953],"min":[-0.10018114745616913,-1.7803852614406424e-8,-0.10927926003932953],"type":"VEC3"},{"bufferView":2,"byteOffset":255348,"componentType":5126,"count":389,"max":[8.008635529917207e-14,1,-1.629205570452541e-7],"min":[-6.22208210789791e-15,1,-1.629207417863654e-7],"type":"VEC3"},{"bufferView":1,"byteOffset":83560,"componentType":5126,"count":389,"max":[1,1],"min":[0,0],"type":"VEC2"},{"bufferView":0,"byteOffset":79248,"componentType":5125,"count":1131,"max":[388],"min":[0],"type":"SCALAR"},{"bufferView":2,"byteOffset":260016,"componentType":5126,"count":60,"max":[0.3449400067329407,1.2137596172578924e-7,0.7450003027915955],"min":[-0.3449400067329407,-1.2137596172578924e-7,-0.7450003027915955],"type":"VEC3"},{"bufferView":2,"byteOffset":260736,"componentType":5126,"count":60,"max":[2.2176638107163787e-16,-1,1.6292069915380125e-7],"min":[2.2176638107163787e-16,-1,1.6292069915380125e-7],"type":"VEC3"},{"bufferView":1,"byteOffset":86672,"componentType":5126,"count":60,"max":[0.9999974966049194,0.9980883002281189],"min":[-0.00028330087661743164,0.0019020278705284],"type":"VEC2"},{"bufferView":0,"byteOffset":83772,"componentType":5125,"count":174,"max":[59],"min":[0],"type":"SCALAR"},{"bufferView":2,"byteOffset":261456,"componentType":5126,"count":192,"max":[0.13018116354942322,2.26914753653773e-8,0.13927927613258362],"min":[-0.13018116354942322,-2.26914753653773e-8,-0.13927927613258362],"type":"VEC3"},{"bufferView":2,"byteOffset":263760,"componentType":5126,"count":192,"max":[0.000013214174032327719,1,0.00033539175637997687],"min":[-0.0000030575906748708803,0.9999999403953552,-0.00033568721846677363],"type":"VEC3"},{"bufferView":1,"byteOffset":87152,"componentType":5126,"count":192,"max":[1,1],"min":[0,0],"type":"VEC2"},{"bufferView":0,"byteOffset":84468,"componentType":5125,"count":558,"max":[191],"min":[0],"type":"SCALAR"},{"bufferView":2,"byteOffset":266064,"componentType":5126,"count":2744,"max":[0.379940003156662,0.04105014353990555,0.7800003290176392],"min":[-0.379940003156662,-0.04105014353990555,-0.7800003290176392],"type":"VEC3"},{"bufferView":2,"byteOffset":298992,"componentType":5126,"count":2744,"max":[1,1,1],"min":[-1,-1,-1],"type":"VEC3"},{"bufferView":1,"byteOffset":88688,"componentType":5126,"count":2744,"max":[1,1],"min":[0,0],"type":"VEC2"},{"bufferView":0,"byteOffset":86700,"componentType":5125,"count":4899,"max":[2743],"min":[0],"type":"SCALAR"},{"bufferView":2,"byteOffset":331920,"componentType":5126,"count":495,"max":[0.13025203347206116,0.03633397817611694,0.14881983399391174],"min":[-0.13025201857089996,-0.03633398190140724,-0.14881983399391174],"type":"VEC3"},{"bufferView":2,"byteOffset":337860,"componentType":5126,"count":495,"max":[0.13394734263420105,0.9914635419845581,0.13207918405532837],"min":[-0.1316956877708435,-1,-0.1318967491388321],"type":"VEC3"},{"bufferView":1,"byteOffset":110640,"componentType":5126,"count":495,"max":[1,1],"min":[0,0],"type":"VEC2"},{"bufferView":0,"byteOffset":106296,"componentType":5125,"count":1008,"max":[494],"min":[0],"type":"SCALAR"},{"bufferView":2,"byteOffset":343800,"componentType":5126,"count":137,"max":[0.0841074138879776,1.4973904782777936e-8,0.10559551417827606],"min":[-0.07665771245956421,-1.7203694469003494e-8,-0.09190916270017624],"type":"VEC3"},{"bufferView":2,"byteOffset":345444,"componentType":5126,"count":137,"max":[0.003115530125796795,1,0.0003345822624396533],"min":[-0.00047929660649970174,0.9999940395355225,-0.0014853361062705517],"type":"VEC3"},{"bufferView":1,"byteOffset":114600,"componentType":5126,"count":137,"max":[0.9998101592063904,1],"min":[0,0],"type":"VEC2"},{"bufferView":0,"byteOffset":110328,"componentType":5125,"count":399,"max":[136],"min":[0],"type":"SCALAR"}],"asset":{"extras":{"author":"OneSteven (https://sketchfab.com/Steven007)","license":"CC-BY-NC-SA-4.0 (http://creativecommons.org/licenses/by-nc-sa/4.0/)","source":"https://sketchfab.com/3d-models/apple-iphone-11-pro-e88c8489a48b494bb4db178c2907f737","title":"Apple iPhone 11 Pro"},"generator":"Sketchfab-8.39.0","version":"2.0"},"bufferViews":[{"buffer":0,"byteLength":111924,"byteOffset":0,"name":"floatBufferViews","target":34963},{"buffer":0,"byteLength":115696,"byteOffset":111924,"byteStride":8,"name":"floatBufferViews","target":34962},{"buffer":0,"byteLength":347088,"byteOffset":227620,"byteStride":12,"name":"floatBufferViews","target":34962}],"buffers":[{"byteLength":574708,"uri":"data:application/octet-stream;base64,"}],"images":[{"uri":"data:application/octet-stream;base64,"},{"uri":"data:application/octet-stream;base64,"},{"uri":"data:application/octet-stream;base64,"}],"materials":[{"alphaMode":"BLEND","doubleSided":true,"emissiveFactor":[0,0,0],"name":"material","pbrMetallicRoughness":{"baseColorFactor":[0.1451,0.1451,0.1451,0],"metallicFactor":1,"roughnessFactor":0.43883266554388867}},{"doubleSided":true,"emissiveFactor":[0,0,0],"name":"material_1","pbrMetallicRoughness":{"baseColorFactor":[0.10076388709227245,0.10076388709227245,0.10076388709227245,1],"metallicFactor":1,"roughnessFactor":0.5361130702303722}},{"doubleSided":true,"emissiveFactor":[0,0,0],"name":"fash","pbrMetallicRoughness":{"baseColorFactor":[0.7750206857186628,0.668326134943816,0.2883646315996686,1],"metallicFactor":0,"roughnessFactor":0}},{"doubleSided":true,"emissiveFactor":[0,0,0],"name":"gryl","pbrMetallicRoughness":{"baseColorFactor":[1,1,1,1],"baseColorTexture":{"index":0,"texCoord":0},"metallicFactor":1,"roughnessFactor":0.2746719826354478}},{"doubleSided":true,"emissiveFactor":[0,0,0],"name":"lense","pbrMetallicRoughness":{"baseColorFactor":[1,1,1,1],"baseColorTexture":{"index":1,"texCoord":0},"metallicFactor":0,"roughnessFactor":0}},{"doubleSided":true,"emissiveFactor":[0,0,0],"name":"dchr","pbrMetallicRoughness":{"baseColorFactor":[0.0272099,0.0272099,0.0272099,1],"metallicFactor":1,"roughnessFactor":0.14091142619153307}},{"doubleSided":true,"emissiveFactor":[0,0,0],"name":"bezel","pbrMetallicRoughness":{"baseColorFactor":[0.0015733934578167845,0.0015733934578167845,0.0015733934578167845,1],"metallicFactor":0,"roughnessFactor":0}},{"doubleSided":true,"emissiveFactor":[0,0,0],"name":"material_7","pbrMetallicRoughness":{"baseColorFactor":[0.2495090379575979,0.2495090379575979,0.2495090379575979,1],"metallicFactor":1,"roughnessFactor":0.31723215968578433}},{"doubleSided":true,"emissiveFactor":[0,0,0],"name":"material_8","pbrMetallicRoughness":{"baseColorFactor":[0.0173876,0.0173876,0.0173876,1],"metallicFactor":0,"roughnessFactor":0.8239417257461427}},{"doubleSided":true,"emissiveFactor":[0,0,0],"name":"material_9","pbrMetallicRoughness":{"baseColorFactor":[1,1,1,1],"metallicFactor":1,"roughnessFactor":0}},{"doubleSided":true,"emissiveFactor":[1,1,1],"emissiveTexture":{"index":2,"texCoord":0},"name":"material_10","pbrMetallicRoughness":{"baseColorFactor":[0.06260526043788342,0.06260526043788342,0.06260526043788342,1],"baseColorTexture":{"index":2,"texCoord":0},"metallicFactor":0,"roughnessFactor":0}},{"alphaMode":"BLEND","doubleSided":true,"emissiveFactor":[0,0,0],"name":"glsl","pbrMetallicRoughness":{"baseColorFactor":[0,0,0,0.2510860445179452],"metallicFactor":0,"roughnessFactor":0}},{"alphaMode":"BLEND","doubleSided":true,"emissiveFactor":[0,0,0],"name":"glass","pbrMetallicRoughness":{"baseColorFactor":[0,0,0,0.07476531102369385],"metallicFactor":0,"roughnessFactor":0}},{"doubleSided":true,"emissiveFactor":[0,0,0],"name":"misc1","pbrMetallicRoughness":{"baseColorFactor":[0.0188486,0.0188486,0.0188486,1],"metallicFactor":1,"roughnessFactor":0.24427185617092173}},{"doubleSided":true,"emissiveFactor":[0,0,0],"name":"logo","pbrMetallicRoughness":{"baseColorFactor":[0.032133151001635024,0.032133151001635024,0.032133151001635024,1],"metallicFactor":1,"roughnessFactor":0.20779170441349037}}],"meshes":[{"name":"object_/A_0","primitives":[{"attributes":{"NORMAL":1,"POSITION":0,"TEXCOORD_0":2},"indices":3,"material":0,"mode":4}]},{"name":"object.001_alu_0","primitives":[{"attributes":{"NORMAL":5,"POSITION":4,"TEXCOORD_0":6},"indices":7,"material":1,"mode":4}]},{"name":"object.002_fash_0","primitives":[{"attributes":{"NORMAL":9,"POSITION":8,"TEXCOORD_0":10},"indices":11,"material":2,"mode":4}]},{"name":"object.003_gryl_0","primitives":[{"attributes":{"NORMAL":13,"POSITION":12,"TEXCOORD_0":14},"indices":15,"material":3,"mode":4}]},{"name":"object.004_lense_0","primitives":[{"attributes":{"NORMAL":17,"POSITION":16,"TEXCOORD_0":18},"indices":19,"material":4,"mode":4}]},{"name":"object.005_dchr_0","primitives":[{"attributes":{"NORMAL":21,"POSITION":20,"TEXCOORD_0":22},"indices":23,"material":5,"mode":4}]},{"name":"object.006_bezel_0","primitives":[{"attributes":{"NORMAL":25,"POSITION":24,"TEXCOORD_0":26},"indices":27,"material":6,"mode":4}]},{"name":"object.007_but_0","primitives":[{"attributes":{"NORMAL":29,"POSITION":28,"TEXCOORD_0":30},"indices":31,"material":7,"mode":4}]},{"name":"object.008_ant_0","primitives":[{"attributes":{"NORMAL":33,"POSITION":32,"TEXCOORD_0":34},"indices":35,"material":8,"mode":4}]},{"name":"object.009_chr_0","primitives":[{"attributes":{"NORMAL":37,"POSITION":36,"TEXCOORD_0":38},"indices":39,"material":9,"mode":4}]},{"name":"object.010_scr_0","primitives":[{"attributes":{"NORMAL":41,"POSITION":40,"TEXCOORD_0":42},"indices":43,"material":10,"mode":4}]},{"name":"object.011_glsl_0","primitives":[{"attributes":{"NORMAL":45,"POSITION":44,"TEXCOORD_0":46},"indices":47,"material":11,"mode":4}]},{"name":"object.012_glass_0","primitives":[{"attributes":{"NORMAL":49,"POSITION":48,"TEXCOORD_0":50},"indices":51,"material":12,"mode":4}]},{"name":"object.013_misc1_0","primitives":[{"attributes":{"NORMAL":53,"POSITION":52,"TEXCOORD_0":54},"indices":55,"material":13,"mode":4}]},{"name":"object.014_logo_0","primitives":[{"attributes":{"NORMAL":57,"POSITION":56,"TEXCOORD_0":58},"indices":59,"material":14,"mode":4}]}],"nodes":[{"children":[1],"name":"RootNode (gltf orientation matrix)","rotation":[-0.7071067811865475,0,0,0.7071067811865476]},{"children":[2],"matrix":[1,0,0,0,0,2.220446049250313e-16,-1,0,0,1,2.220446049250313e-16,0,0,-0.000014303456737252418,0.000027457928808871657,1],"name":"RootNode (model correction matrix)"},{"children":[3],"matrix":[1,0,0,0,0,0,1,0,0,-1,0,0,0,0,0,1],"name":"iPhone 11 Pro.fbx"},{"children":[4,6,8,10,12,14,16,18,20,22,24,26,28,30,32],"name":"RootNode"},{"children":[5],"matrix":[100,0,0,0,0,-0.00001629206793918314,-99.99999999999868,0,0,99.99999999999868,-0.00001629206793918314,0,-0.04283143952488899,0.8069460988044739,0.045000191777944565,1],"name":"object"},{"mesh":0,"name":"object_/A_0"},{"children":[7],"matrix":[100,0,0,0,0,-0.00001629206793918314,-99.99999999999868,0,0,99.99999999999868,-0.00001629206793918314,0,-0.05097772926092148,-5.364429345178223e-9,0.045000094920396805,1],"name":"object.001"},{"mesh":1,"name":"object.001_alu_0"},{"children":[9],"matrix":[100,0,0,0,0,-0.00001629206793918314,-99.99999999999868,0,0,99.99999999999868,-0.00001629206793918314,0,11.649043083190918,69.21685791015625,-1.8013325929641724,1],"name":"object.002"},{"mesh":2,"name":"object.002_fash_0"},{"children":[11],"matrix":[100,0,0,0,0,-0.00001629206793918314,-99.99999999999868,0,0,99.99999999999868,-0.00001629206793918314,0,4.222918510437012,59.369911193847656,0.5083310008049011,1],"name":"object.003"},{"mesh":3,"name":"object.003_gryl_0"},{"children":[13],"matrix":[100,0,0,0,0,-0.00001629206793918314,-99.99999999999868,0,0,99.99999999999868,-0.00001629206793918314,0,17.267711639404297,61.0384407043457,0.27507996559143066,1],"name":"object.004"},{"mesh":4,"name":"object.004_lense_0"},{"children":[15],"matrix":[100,0,0,0,0,-0.00001629206793918314,-99.99999999999868,0,0,99.99999999999868,-0.00001629206793918314,0,18.843122482299805,58.08557891845703,-3.354471206665039,1],"name":"object.005"},{"mesh":5,"name":"object.005_dchr_0"},{"children":[17],"matrix":[100,0,0,0,0,-0.00001629206793918314,-99.99999999999868,0,0,99.99999999999868,-0.00001629206793918314,0,-0.050975825637578964,-0.003754079109057784,3.4863340854644775,1],"name":"object.006"},{"mesh":6,"name":"object.006_bezel_0"},{"children":[19],"matrix":[100,0,0,0,0,-0.00001629206793918314,-99.99999999999868,0,0,99.99999999999868,-0.00001629206793918314,0,0,36.089298248291016,0.10438567399978638,1],"name":"object.007"},{"mesh":7,"name":"object.007_but_0"},{"children":[21],"matrix":[100,0,0,0,0,-0.00001629206793918314,-99.99999999999868,0,0,99.99999999999868,-0.00001629206793918314,0,-0.05097772926092148,-0.0037574837915599346,0.045000094920396805,1],"name":"object.008"},{"mesh":8,"name":"object.008_ant_0"},{"children":[23],"matrix":[100,0,0,0,0,-0.00001629206793918314,-99.99999999999868,0,0,99.99999999999868,-0.00001629206793918314,0,18.841800689697266,58.08452224731445,-3.1110661029815674,1],"name":"object.009"},{"mesh":9,"name":"object.009_chr_0"},{"children":[25],"matrix":[100,0,0,0,0,-0.00001629206793918314,-99.99999999999868,0,0,99.99999999999868,-0.00001629206793918314,0,-0.050975825637578964,-0.003757938276976347,3.8575992584228516,1],"name":"object.010"},{"mesh":10,"name":"object.010_scr_0"},{"children":[27],"matrix":[100,0,0,0,0,-0.00001629206793918314,-99.99999999999868,0,0,99.99999999999868,-0.00001629206793918314,0,18.842073440551758,58.08452224731445,-3.64620041847229,1],"name":"object.011"},{"mesh":11,"name":"object.011_glsl_0"},{"children":[29],"matrix":[100,0,0,0,0,-0.00001629206793918314,-99.99999999999868,0,0,99.99999999999868,-0.00001629206793918314,0,-0.050975825637578964,-0.0037574784364551306,4.763894594361773e-7,1],"name":"object.012"},{"mesh":12,"name":"object.012_glass_0"},{"children":[31],"matrix":[100,0,0,0,0,-0.00001629206793918314,-99.99999999999868,0,0,99.99999999999868,-0.00001629206793918314,0,18.83498191833496,59.038307189941406,0.02782525308430195,1],"name":"object.013"},{"mesh":13,"name":"object.013_misc1_0"},{"children":[33],"matrix":[100,0,0,0,0,-0.00001629206793918314,-99.99999999999868,0,0,99.99999999999868,-0.00001629206793918314,0,0.5043322443962097,6.136743545532227,-3.0808324813842773,1],"name":"object.014"},{"mesh":14,"name":"object.014_logo_0"}],"samplers":[{"magFilter":9729,"minFilter":9987,"wrapS":10497,"wrapT":10497}],"scene":0,"scenes":[{"name":"OSG_Scene","nodes":[0]}],"textures":[{"sampler":0,"source":0},{"sampler":0,"source":1},{"sampler":0,"source":2}]}